<svg width="138" height="32" viewBox="0 0 138 32" fill="none" xmlns="http://www.w3.org/2000/svg">
<g clip-path="url(#clip0_46_901)">
<path d="M105.32 16.4103C105.352 16.079 105.31 15.7448 105.198 15.4315C105.085 15.1182 104.905 14.8337 104.67 14.5984C104.434 14.3631 104.15 14.1828 103.837 14.0704C103.523 13.958 103.189 13.9164 102.858 13.9486C101.314 14.0581 99.86 14.713 98.755 15.7962V28.1029C98.755 30.7704 98.755 30.7704 101.217 30.7704V31.5903H89.7293V30.7704C92.191 30.7704 92.191 30.7704 92.191 28.1029V4.51326C92.191 2.46181 92.191 2.46181 90.1396 2.46181V1.84569L98.4274 7e-05H98.755V14.9743H98.8377C99.613 13.6713 100.711 12.5903 102.026 11.8359C103.342 11.0814 104.829 10.6791 106.345 10.6676C109.094 10.6676 111.884 12.3074 111.884 16.8199V28.1029C111.884 30.7705 111.884 30.7705 114.345 30.7705V31.5904H103.679V30.7705C105.32 30.7705 105.32 30.7705 105.32 28.1029V16.4103ZM82.8358 27.2829C84.0875 27.3496 85.3321 27.0567 86.4227 26.4387C87.5133 25.8207 88.4042 24.9035 88.9901 23.7954H89.4004C88.5798 27.8983 85.7078 31.9999 80.5792 31.9999C73.8101 31.9999 70.1175 27.0771 70.1175 21.5389C70.1061 20.1079 70.3796 18.6891 70.922 17.3649C71.4644 16.0407 72.2649 14.8377 73.2768 13.8259C74.2887 12.8141 75.4918 12.0138 76.8161 11.4716C78.1403 10.9293 79.5593 10.656 80.9902 10.6675C86.1181 10.6675 88.826 13.1703 88.826 15.7962C88.826 17.2315 88.1696 18.6668 85.7078 18.6668C83.6564 18.6668 83.2051 17.3956 83.2468 16.5326C83.4512 13.5389 83.2468 11.4874 80.7843 11.4874C77.913 11.4874 76.6001 15.3031 76.6001 20.0611C76.6001 25.4359 79.7593 27.2829 82.8358 27.2829ZM60.9677 16.4103C60.9998 16.079 60.9582 15.7448 60.8458 15.4315C60.7335 15.1182 60.5532 14.8337 60.3178 14.5984C60.0825 14.3631 59.798 14.1828 59.4847 14.0704C59.1715 13.958 58.8372 13.9164 58.5059 13.9486C56.9624 14.0581 55.5081 14.713 54.403 15.7962V28.1029C54.403 30.7704 54.403 30.7704 56.8648 30.7704V31.5903H45.3774V30.7704C47.8391 30.7704 47.8391 30.7704 47.8391 28.1029V15.1801C47.8391 13.1287 47.8391 13.1287 45.7876 13.1287V12.5132L54.1986 10.6676H54.5262L54.4031 14.9743H54.4858C55.2611 13.6713 56.3594 12.5903 57.6746 11.8359C58.9898 11.0815 60.4773 10.6791 61.9935 10.6676C64.7424 10.6676 67.5324 12.3074 67.5324 16.8199V28.1029C67.5324 30.7705 67.5324 30.7705 69.9934 30.7705V31.5904H59.3272V30.7705C60.9677 30.7705 60.9677 30.7705 60.9677 28.1029V16.4103ZM31.3453 18.8714H37.3758C38.074 16.0828 38.6484 11.4876 35.5295 11.4876C33.1915 11.4876 31.5094 13.6614 31.3453 18.8714ZM24.8634 21.5383C24.852 20.1074 25.1255 18.6886 25.6678 17.3645C26.2102 16.0403 27.0106 14.8373 28.0224 13.8256C29.0342 12.8138 30.2373 12.0135 31.5615 11.4712C32.8856 10.9289 34.3045 10.6555 35.7353 10.667C40.453 10.667 44.72 12.7184 43.4891 19.6927H31.3453C31.3453 25.2316 34.5045 27.2831 37.581 27.2831C38.8327 27.3499 40.0774 27.057 41.168 26.439C42.2585 25.821 43.1494 24.9037 43.7353 23.7956H44.1456C43.3257 27.8985 40.453 32 35.3244 32C28.5553 32 24.8634 27.0772 24.8634 21.5383ZM9.84627 16.41C13.5396 16.41 14.9749 13.9489 14.9749 10.0512C14.9749 6.56441 13.5396 3.6917 11.0771 3.6917H9.02569V16.41H9.84627ZM9.02569 17.2313V30.7702H11.8977C15.18 30.7702 16.2057 27.4872 16.2057 23.7959C16.2057 20.1026 14.3594 17.2313 10.6668 17.2313L9.02569 17.2313ZM12.308 2.87114C18.4624 2.87114 21.7447 5.74314 21.7447 9.84606C21.7447 13.1284 19.2829 15.5901 16.0007 16.4928V16.5741C21.1286 17.8453 22.9749 20.8411 22.9749 23.9997C22.9749 28.5129 19.6933 31.59 13.5396 31.59H0V30.7702C2.46106 30.7702 2.46106 30.7702 2.46106 28.1026V6.3586C2.46106 3.69172 2.46106 3.69172 0 3.69172V2.87114H12.308ZM131.091 6.83814V8.88961H129.688L130.399 14.5742H128.332L127.621 8.88961H124.303L123.593 14.5742H121.526L122.236 8.88961H120.834V6.83816L131.091 6.83814ZM125.962 22.5659C122.971 22.5624 120.103 21.3725 117.988 19.2573C115.873 17.1421 114.683 14.2743 114.679 11.2829V0H137.245V11.283C137.242 14.2744 136.052 17.1422 133.937 19.2574C131.821 21.3726 128.954 22.5624 125.962 22.5659L125.962 22.5659ZM116.731 2.05143V11.283C116.731 13.7313 117.703 16.0794 119.435 17.8107C121.166 19.5419 123.514 20.5145 125.962 20.5145C128.411 20.5145 130.759 19.5419 132.49 17.8107C134.221 16.0794 135.194 13.7313 135.194 11.283V2.05145L116.731 2.05143Z" fill="black"/>
</g>
<defs>
<clipPath id="clip0_46_901">
<rect width="137.245" height="32" fill="white"/>
</clipPath>
</defs>
</svg>
